<?xml version="1.0" encoding="UTF-8"?>
<svg xmlns="http://www.w3.org/2000/svg" style="display:none" aria-hidden="true">
  <symbol id="icon-arrow" viewBox="0 0 1000 1000"><path transform="translate(0 850) scale(1 -1)" d="M0 170l0 360 414 0 0 211 586-391-586-391 0 211-414 0z"/></symbol>
  <symbol id="icon-attention" viewBox="0 0 962 1000"><path transform="translate(0 850) scale(1 -1)" d="M957-24q10-16 0-34-10-16-30-16l-892 0q-18 0-28 16-13 18-2 34l446 782q8 18 30 18t30-18z m-420 50l0 100-110 0 0-100 110 0z m0 174l0 300-110 0 0-300 110 0z"/></symbol>
  <symbol id="icon-bell" viewBox="0 0 1000 1000"><path transform="translate(0 850) scale(1 -1)" d="M509-96q0 8-9 8-33 0-57 24t-23 57q0 9-9 9t-9-9q0-41 29-70t69-28q9 0 9 9z m455 160q0-29-21-50t-50-21h-250q0-59-42-101t-101-42-101 42-42 101h-250q-29 0-50 21t-21 50q28 24 51 49t47 67 42 89 27 115 11 145q0 84 66 157t171 89q-5 10-5 21 0 23 16 38t38 16 38-16 16-38q0-11-5-21 106-16 171-89t66-157q0-78 11-145t28-115 41-89 48-67 50-49z"/></symbol>
  <symbol id="icon-bold" viewBox="0 0 785 1000"><path transform="translate(0 850) scale(1 -1)" d="M310 1q41-18 78-18 210 0 210 187 0 64-23 101-15 24-34 41t-38 26-45 14-47 6-53 1q-40 0-56-6 0-29 0-88t-1-88q0-5 0-38t0-54 2-47 7-37z m-8 417q23-4 61-4 46 0 80 7t61 25 42 50 14 79q0 39-16 68t-45 46-60 24-69 8q-28 0-73-7 0-28 3-84t2-85q0-15 0-45t-1-44q0-26 1-38z m-302-497l1 53q9 2 48 9t59 15q4 7 7 15t4 19 4 18 1 21 0 19v36q0 548-12 572-2 5-12 8t-25 6-28 4-27 3-17 2l-2 46q55 1 190 6t208 6q13 0 38-1t38 0q39 0 76-7t72-24 60-39 41-59 16-76q0-29-9-54t-22-40-36-32-41-25-47-22q86-20 144-75t57-138q0-56-20-101t-52-72-77-48-91-27-98-8q-25 0-74 2t-74 1q-59 0-171-6t-129-7z"/></symbol>
  <symbol id="icon-building" viewBox="0 0 750 1000"><path transform="translate(0 850) scale(1 -1)" d="M50 800c-28 0-50-22-50-50 0 0 0-533 0-800 0-25 25-50 50-50 83 0 250 0 250 0l0 150c0 28 26 50 50 50l50 0c24 0 50-22 50-50 0-50 0-100 0-150 0 0 167 0 250 0 25 0 50 25 50 50 0 267 0 800 0 800 0 28-22 50-50 50z m100-150l150 0 0-100-150 0z m300 0l150 0 0-100-150 0z m-300-300l150 0 0-100-150 0z m300 0l150 0 0-100-150 0z"/></symbol>
  <symbol id="icon-calendar" viewBox="0 0 893 1000"><path transform="translate(0 850) scale(1 -1)" d="M0-150l0 649 893 0 0-649-893 0z m0 705l0 221 109 0 0-141 200 0 0 141 275 0 0-141 199 0 0 141 110 0 0-221-893 0z m168 139l0 156 82 0 0-156-82 0z m59-619q0-112 123-112 47 0 84 32 39 31 39 80 0 68-78 90 48 15 64 48 12 28-2 73-27 62-107 62-51 0-86-26t-37-77l72 0q0 45 49 46 43 0 45-52 0-49-84-47l0-57q48 0 68-8 23-11 23-46 0-57-54-61-43 0-47 55l-72 0z m281 146q49 14 88 47l0-297 70 0 0 371-64 0q-38-37-94-58l0-63z m135 473l0 156 82 0 0-156-82 0z"/></symbol>
  <symbol id="icon-cancel" viewBox="0 0 785 1000"><path transform="translate(0 850) scale(1 -1)" d="M724 112q0-22-15-38l-76-76q-16-15-38-15t-38 15l-164 165-164-165q-16-15-38-15t-38 15l-76 76q-16 16-16 38t16 38l164 164-164 164q-16 16-16 38t16 38l76 76q16 16 38 16t38-16l164-164 164 164q16 16 38 16t38-16l76-76q15-15 15-38t-15-38l-164-164 164-164q15-15 15-38z"/></symbol>
  <symbol id="icon-certificate" viewBox="0 0 992 1000"><path transform="translate(0 850) scale(1 -1)" d="M0 219l94 139-86 146 154 67 6 168 166-28 96 139 125-113 156 64 43-162 166-29-51-160 123-116-129-107 43-164-168-20-52-160-153 74-131-107-88 145-167-20 3 170z"/></symbol>
  <symbol id="icon-circle" viewBox="0 0 820 1000"><path transform="translate(0 850) scale(1 -1)" d="M186 140l116 116 0-292-276 16 88 86q-116 122-114 290t120 288q100 100 240 116l4-102q-100-16-172-88-88-88-90-213t84-217z m332 598l276-16-88-86q116-122 114-290t-120-288q-96-98-240-118l-2 104q98 16 170 88 88 88 90 213t-84 217l-114-116z"/></symbol>
  <symbol id="icon-clock" viewBox="0 0 920 1000"><path transform="translate(0 850) scale(1 -1)" d="M460 810q190 0 325-135t135-325-135-325-325-135-325 135-135 325 135 325 325 135z m0-820q150 0 255 106t105 254q0 150-105 255t-255 105q-148 0-254-105t-106-255q0-148 106-254t254-106z m36 620l0-244 150-150-50-50-170 170 0 274 70 0z"/></symbol>
  <symbol id="icon-cog" viewBox="0 0 857 1000"><path transform="translate(0 850) scale(1 -1)" d="M571 350q0 59-41 101t-101 42-101-42-42-101 42-101 101-42 101 42 41 101z m286 61v-124q0-7-4-13t-11-7l-104-16q-10-30-21-51 19-27 59-77 6-6 6-13t-5-13q-15-21-55-61t-53-39q-7 0-14 5l-77 60q-25-13-51-21-9-76-16-104-4-16-20-16h-124q-8 0-14 5t-6 12l-16 103q-27 9-50 21l-79-60q-6-5-14-5-8 0-14 6-70 64-92 94-4 5-4 13 0 6 5 12 8 12 28 37t30 40q-15 28-23 55l-102 15q-7 1-11 7t-5 13v124q0 7 5 13t10 7l104 16q8 25 22 51-23 32-60 77-6 7-6 14 0 5 5 12 15 20 55 60t53 40q7 0 15-5l77-60q24 13 50 21 9 76 17 104 3 16 20 16h124q7 0 13-5t7-12l15-103q28-9 51-20l79 59q5 5 13 5 7 0 14-5 72-67 92-95 4-5 4-12 0-7-4-13-9-12-29-37t-30-40q15-28 23-54l102-16q7-1 12-7t4-13z"/></symbol>
  <symbol id="icon-communication" viewBox="0 0 1000 1000"><path transform="translate(0 850) scale(1 -1)" d="M1000 350q0-97-67-179t-182-130-251-48q-39 0-81 4-110-97-257-135-27-8-63-12-10-1-17 5t-10 16v1q-2 2 0 6t1 6 2 5l4 5t4 5 4 5q4 5 17 19t20 22 17 22 18 28 15 33 15 42q-88 50-138 123t-51 157q0 73 40 139t106 114 160 76 194 28q136 0 251-48t182-130 67-179z"/></symbol>
  <symbol id="icon-content" viewBox="0 0 800 1000"><path transform="translate(0 850) scale(1 -1)" d="M700 800q42 0 71-29t29-71l0-700q0-40-29-70t-71-30l-600 0q-40 0-70 30t-30 70l0 700q0 42 30 71t70 29l600 0z m0-800l0 700-600 0 0-700 600 0z m-250 250l0-50-250 0 0 50 250 0z m150 200l0-50-200 0 0 50 200 0z m-200 50l0 100 200 0 0-100-200 0z m-50 100l0-200-150 0 0 200 150 0z m-50-250l0-50-100 0 0 50 100 0z m50-50l0 50 250 0 0-50-250 0z m250-150l0-50-400 0 0 50 400 0z m-100 50l0 50 100 0 0-50-100 0z"/></symbol>
  <symbol id="icon-down" viewBox="0 0 1702 1000"><path transform="translate(0 850) scale(1 -1)" d="M47 799c63 65 153 71 231 0l573-551 574 551c78 71 167 65 231 0 64-66 60-176 0-238-60-61-689-662-689-662-32-33-74-49-116-49s-83 16-116 49c0 0-629 601-688 662-60 62-65 172 0 238z"/></symbol>
  <symbol id="icon-droplet" viewBox="0 0 560 1000"><path transform="translate(0 850) scale(1 -1)" d="M290 822q14-118 60-219t92-159 82-136 36-160q0-114-83-196t-197-82-197 82-83 196q0 82 36 160t82 136 92 159 60 219q2 8 11 8t9-8z m-42-392q2 4-2 14-6 6-14 6t-12-6l-40-58q-32-46-48-70t-34-75-18-101q0-24 17-41t41-17q58 0 58 68 0 94 42 246 2 6 5 17t5 17z"/></symbol>
  <symbol id="icon-exclamation-mark" viewBox="0 0 1000 1000"><path transform="translate(0 850) scale(1 -1)" d="M500 850c276 0 500-224 500-500s-224-500-500-500-500 224-500 500 224 500 500 500z m1-682c-12 0-22-2-32-6-9-4-18-10-25-16-7-7-12-15-16-24-4-10-6-20-6-30 0-11 2-21 6-30 4-9 9-18 16-24 7-7 16-13 25-16 10-4 20-6 32-6 11 0 21 2 31 6 9 3 18 9 25 16 7 6 13 15 17 24 4 9 6 19 6 30 0 10-2 20-6 30-4 9-10 17-17 24-7 6-16 12-25 16-10 4-20 6-31 6z m66 507h-130v-256c0-28 1-55 5-82 3-26 7-53 12-79l1-4h94c6 28 10 56 13 83 3 26 5 52 5 79l0 3v256z"/></symbol>
  <symbol id="icon-eye" viewBox="0 0 1000 1000"><path transform="translate(0 850) scale(1 -1)" d="M500 630q92 0 177-25t141-62 99-77 63-71 20-45-20-44-63-71-99-78-141-62-177-25-177 25-141 62-99 78-63 71-20 44 20 45 63 71 99 77 141 62 177 25z m0-494q92 0 157 63t65 151q0 90-65 153t-157 63-157-63-65-153q0-88 65-151t157-63z m0 214q8-8 37-2t50 11 25-9q0-44-33-75t-79-31-78 31-32 75q0 46 32 77t78 31q14 0 10-23t-12-47 2-38z"/></symbol>
  <symbol id="icon-flash" viewBox="0 0 400 1000"><path transform="translate(0 850) scale(1 -1)" d="M40-100q-4 4 35 94t79 182 38 98-94 45-98 55q-4 12 84 120t180 209 96 97q6-4-74-186t-78-186 95-43 97-57q4-20-174-227t-186-201z"/></symbol>
  <symbol id="icon-globe" viewBox="0 0 960 1000"><path transform="translate(0 850) scale(1 -1)" d="M480 830q200 0 340-141t140-339q0-200-140-340t-340-140q-198 0-339 140t-141 340q0 198 141 339t339 141z m410-480q0 132-78 239t-202 149q-18-24-16-32 4-38 18-51t30-7l32 12t20 2q22-24 0-47t-45-56-1-77q34-64 96-64 28-2 43-36t17-66q10-80-14-140-22-44 14-76 86 112 86 250z m-466 404q-112-14-199-84t-127-174q6 0 22-2t28-3 26-4 24-8 12-13q4-12-14-45t-18-61q0-30 38-56t38-46q0-28 8-68t8-44q0-12 36-54t52-42q10 0 11 22t-2 54-3 40q0 32 14 74 12 42 59 70t55 46q16 34 9 61t-17 43-34 28-41 17-37 9-22 4q-16 6-42 7t-36-3-27 11-17 29q0 10 15 27t35 37 28 30q8 14 17 21t22 16 27 21q4 4 25 17t27 23z m-72-794q66-20 128-20 128 0 226 68-26 44-118 34-24-2-65-17t-47-17q-74-16-76-16-12-2-26-14t-22-18z"/></symbol>
  <symbol id="icon-header" viewBox="0 0 1000 1000"><path transform="translate(0 850) scale(1 -1)" d="M939-79q-25 0-74 2t-75 2q-24 0-73-2t-74-2q-13 0-21 12t-7 25q0 18 9 26t22 9 29 4 25 9q18 11 18 78l0 218q0 12-1 17-7 3-28 3h-376q-22 0-29-3 0-5 0-17l-1-207q0-79 21-91 9-6 26-8t32-2 25-8 11-26q0-14-6-26t-21-13q-26 0-78 2t-77 2q-24 0-71-2t-71-2q-13 0-20 12t-7 25q0 17 9 25t20 10 26 4 24 9q18 13 18 80l-1 31v454q0 2 1 15t0 20-1 21-2 24-4 20-6 18-9 10q-8 5-25 7t-29 1-23 7-10 26q0 14 6 26t20 13q26 0 78-2t77-2q23 0 71 2t70 2q14 0 21-13t7-26q0-17-9-25t-22-8-27-2-24-7q-20-12-20-90l1-178q0-12 0-18 7-2 22-2h390q14 0 21 2 1 6 1 18l0 178q0 78-19 90-10 6-33 7t-37 7-14 28q0 14 7 26t21 13q24 0 74-2t73-2q24 0 72 2t72 2q14 0 21-13t7-26q0-17-10-25t-22-8-29-2-24-7q-20-13-20-90l1-526q0-66 19-78 9-6 25-8t30-2 23-9 10-25q0-14-6-26t-20-13z"/></symbol>
  <symbol id="icon-heart" viewBox="0 0 1000 1000"><path transform="translate(0 850) scale(1 -1)" d="M500-79q-14 0-25 10l-348 336q-5 5-15 15t-31 37-38 54-30 67-13 77q0 123 71 192t196 70q34 0 70-12t67-33 54-38 42-38q20 20 42 38t54 38 67 33 70 12q125 0 196-70t71-192q0-123-128-251l-347-335q-10-10-25-10z"/></symbol>
  <symbol id="icon-history" viewBox="0 0 940 1000"><path transform="translate(0 850) scale(1 -1)" d="M532 760q170 0 289-120t119-290-119-290-289-120q-138 0-252 88l70 76q82-60 182-60 126 0 216 90t90 216q0 128-90 218t-216 90q-124 0-213-86t-93-210l142 0-184-206-184 206 124 0q4 166 123 282t285 116z m-36-190l70 0 0-204 130-130-50-50-150 150 0 234z"/></symbol>
  <symbol id="icon-home" viewBox="0 0 900 1000"><path transform="translate(0 850) scale(1 -1)" d="M888 336q16-16 11-27t-27-11l-84 0 0-310q0-14-1-21t-8-13-23-6l-204 0 0 310-204 0 0-310-194 0q-28 0-35 10t-7 30l0 310-84 0q-22 0-27 11t11 27l400 402q16 16 38 16t38-16z"/></symbol>
  <symbol id="icon-info" viewBox="0 0 460 1000"><path transform="translate(0 850) scale(1 -1)" d="M352 850q48 0 74-27t26-69q0-50-39-88t-95-38q-48 0-74 26t-24 72q0 46 35 85t97 39z m-206-1000q-100 0-54 178l60 254q14 56 0 56-12 0-54-18t-72-38l-26 44q90 78 189 126t151 48q78 0 36-162l-70-266q-16-64 6-64 44 0 118 60l30-40q-84-86-175-132t-139-46z"/></symbol>
  <symbol id="icon-italic" viewBox="0 0 571 1000"><path transform="translate(0 850) scale(1 -1)" d="M0-78l10 48q12 4 34 9t40 11 33 13q16 19 23 56 1 4 35 162t63 303 29 165v14q-13 8-30 11t-39 4-32 3l10 58q19-1 67-4t84-4 67-1q27 0 55 1t68 4 54 4q-2-22-10-50-17-6-57-16t-60-19q-5-10-8-23t-5-23-4-25-4-24q-15-82-49-234t-43-198q-1-5-7-32t-11-51-9-46-4-32l1-10q9-3 103-18-2-24-9-55-6 0-18-1t-18-1q-16 0-49 6t-48 6q-77 1-115 1-28 0-79-5t-68-7z"/></symbol>
  <symbol id="icon-key" viewBox="0 0 780 1000"><path transform="translate(0 850) scale(1 -1)" d="M774 612q20-116-28-215t-150-117q-66-12-130-2l-118-194-70-12-104-166q-14-28-46-32l-76-14q-12-4-22 4t-12 22l-16 98q-8 30 12 56l258 386q-24 50-38 120-18 106 53 187t185 101q106 20 195-45t107-177z m-126-76q30 44 21 97t-51 83q-42 32-92 22t-80-54q-8-12-12-23t-1-20 5-16 13-17 18-15 22-16 23-17q6-4 22-16t23-16 19-12 19-8 17 1 18 8 16 19z"/></symbol>
  <symbol id="icon-leaf" viewBox="0 0 940 1000"><path transform="translate(0 850) scale(1 -1)" d="M236 646q182 106 506 66 168-22 196-50 4-6-2-10-76-40-130-109t-78-132-65-132-93-105q-138-96-382-4-66-76-114-176-12-24-47-7t-25 39q44 100 129 193t176 153 176 106 141 68l54 20q-14 0-41-1t-104-14-148-38-162-84-161-141q-22 242 174 358z"/></symbol>
  <symbol id="icon-link" viewBox="0 0 928 1000"><path transform="translate(0 850) scale(1 -1)" d="M813 171q0 23-16 38l-116 116q-16 16-38 16-24 0-40-18 1-1 10-10t12-12 9-11 7-14 2-15q0-23-16-38t-38-16q-8 0-15 2t-14 7-11 9-12 12-10 10q-19-17-19-40 0-23 16-38l115-116q15-15 38-15 22 0 38 15l82 81q16 16 16 37z m-393 394q0 22-15 38l-115 115q-16 16-38 16-22 0-38-15l-82-82q-16-15-16-37 0-22 16-38l116-116q15-15 38-15 23 0 40 17-2 2-11 11t-12 12-8 10-7 14-2 16q0 22 15 38t38 15q9 0 16-2t14-7 11-8 12-12 10-11q18 17 18 41z m500-394q0-66-48-113l-82-81q-46-47-113-47-68 0-114 48l-115 115q-46 47-46 114 0 68 49 116l-49 49q-48-49-116-49-67 0-114 47l-116 116q-47 47-47 114t47 113l82 82q47 46 114 46 67 0 114-47l115-116q46-46 46-113 0-69-49-117l49-49q48 49 116 49 67 0 114-47l116-116q47-47 47-114z"/></symbol>
  <symbol id="icon-link-ext" viewBox="0 0 1000 1000"><path transform="translate(0 850) scale(1 -1)" d="M786 332v-178q0-67-47-114t-114-47h-464q-67 0-114 47t-47 114v464q0 66 47 113t114 48h393q7 0 12-5t5-13v-36q0-8-5-13t-12-5h-393q-37 0-63-26t-27-63v-464q0-37 27-63t63-27h464q37 0 63 27t26 63v178q0 8 5 13t13 5h36q8 0 13-5t5-13z m214 482v-285q0-15-11-25t-25-11-25 11l-98 98-364-364q-5-6-13-6t-12 6l-64 64q-6 5-6 12t6 13l364 364-98 98q-11 11-11 25t11 25 25 11h285q15 0 25-11t11-25z"/></symbol>
  <symbol id="icon-list-bullet" viewBox="0 0 1000 1000"><path transform="translate(0 850) scale(1 -1)" d="M214 64q0-44-31-76t-76-31-76 31-31 76 31 76 76 31 76-31 31-76z m0 286q0-45-31-76t-76-31-76 31-31 76 31 76 76 31 76-31 31-76z m786-232v-107q0-7-5-13t-13-5h-678q-8 0-13 5t-5 13v107q0 7 5 12t13 6h678q7 0 13-6t5-12z m-786 518q0-45-31-76t-76-31-76 31-31 76 31 76 76 31 76-31 31-76z m786-232v-108q0-7-5-12t-13-5h-678q-8 0-13 5t-5 12v108q0 7 5 12t13 5h678q7 0 13-5t5-12z m0 285v-107q0-7-5-12t-13-6h-678q-8 0-13 6t-5 12v107q0 8 5 13t13 5h678q7 0 13-5t5-13z"/></symbol>
  <symbol id="icon-list-numbered" viewBox="0 0 1000 1000"><path transform="translate(0 850) scale(1 -1)" d="M213-54q0-45-31-70t-75-26q-60 0-96 37l31 49q28-25 60-25 16 0 28 8t12 24q0 35-59 31l-14 31q4 6 18 24t24 31 20 21v1q-9 0-27-1t-27 0v-30h-59v85h186v-49l-53-65q28-6 45-27t17-49z m1 350v-89h-202q-4 20-4 30 0 29 14 52t31 38 37 27 31 24 14 25q0 14-9 22t-22 7q-25 0-45-32l-47 33q13 28 40 44t59 16q40 0 68-23t28-63q0-28-19-51t-42-36-42-28-20-30h71v34h59z m786-178v-107q0-7-5-13t-13-5h-678q-8 0-13 5t-5 13v107q0 8 5 13t13 5h678q7 0 13-6t5-12z m-786 502v-56h-187v56h60q0 22 0 67t1 68v7h-1q-5-10-28-30l-40 42 76 71h59v-225h60z m786-216v-108q0-7-5-12t-13-5h-678q-8 0-13 5t-5 12v108q0 7 5 12t13 5h678q7 0 13-5t5-12z m0 285v-107q0-7-5-12t-13-6h-678q-8 0-13 6t-5 12v107q0 8 5 13t13 5h678q7 0 13-5t5-13z"/></symbol>
  <symbol id="icon-locked" viewBox="0 0 1000 1000"><path transform="translate(0 850) scale(1 -1)" d="M500 850c276 0 500-224 500-500 0-276-224-500-500-500-276 0-500 224-500 500 0 276 224 500 500 500z m0-171c-127 0-229-102-229-229 0-3 0-7 0-10l0 0 0 0 0-356 458 0 0 356 0 0c0 3 0 7 0 10 0 127-102 229-229 229z m0-79c84 0 153-69 153-153 0-3 0-6 0-9l0 0 0 0 0-60-306 0 0 60 0 0 0 2c0 2 0 4 0 7 0 84 68 153 153 153z"/></symbol>
  <symbol id="icon-looking-glass" viewBox="0 0 1000 1000"><path transform="translate(0 850) scale(1 -1)" d="M403 850c222 0 403-181 403-403 0-90-30-172-79-239l252-252c23-23 23-61 0-85-24-23-62-23-85 0l-252 252c-67-49-149-79-239-79-222 0-403 181-403 403 0 222 181 403 403 403z m4-130c-153 0-277-124-277-277 0-154 124-278 277-278 154 0 278 124 278 278 0 153-124 277-278 277z"/></symbol>
  <symbol id="icon-media" viewBox="0 0 1071 1000"><path transform="translate(0 850) scale(1 -1)" d="M357 529q0-45-31-76t-76-32-76 32-31 76 31 76 76 31 76-31 31-76z m572-215v-250h-786v107l178 179 90-89 285 285z m53 393h-893q-7 0-12-5t-6-13v-678q0-7 6-13t12-5h893q7 0 13 5t5 13v678q0 8-5 13t-13 5z m89-18v-678q0-37-26-63t-63-27h-893q-36 0-63 27t-26 63v678q0 37 26 63t63 27h893q37 0 63-27t26-63z"/></symbol>
  <symbol id="icon-menu" viewBox="0 0 857 1000"><path transform="translate(0 850) scale(1 -1)" d="M857 100v-71q0-15-10-25t-26-11h-785q-15 0-25 11t-11 25v71q0 15 11 25t25 11h785q15 0 26-11t10-25z m0 286v-72q0-14-10-25t-26-10h-785q-15 0-25 10t-11 25v72q0 14 11 25t25 10h785q15 0 26-10t10-25z m0 285v-71q0-14-10-25t-26-11h-785q-15 0-25 11t-11 25v71q0 15 11 26t25 10h785q15 0 26-10t10-26z"/></symbol>
  <symbol id="icon-money" viewBox="0 0 1071 1000"><path transform="translate(0 850) scale(1 -1)" d="M429 207h214v54h-72v250h-63l-83-77 43-44q24 20 31 31h1v-160h-71v-54z m285 143q0-39-11-79t-34-75-56-56-77-22-77 22-57 56-33 75-12 79 12 79 33 75 57 56 77 22 77-22 56-56 34-75 11-79z m286-143v286q-59 0-101 42t-42 101h-643q0-59-42-101t-101-42v-286q60 0 101-42t42-101h643q0 59 42 101t101 42z m71 464v-642q0-15-10-25t-25-11h-1000q-15 0-25 11t-11 25v642q0 15 11 26t25 10h1000q14 0 25-10t10-26z"/></symbol>
  <symbol id="icon-move" viewBox="0 0 1000 1000"><path transform="translate(0 850) scale(1 -1)" d="M981 219c24-43 10-97-33-122l-402-232c-14-8-30-12-46-12-16 0-31 4-46 12l-402 232c-43 25-57 79-33 122 25 43 80 57 122 33l359-207 359 207c43 24 97 10 122-33z m-435 616l402-232c43-25 57-79 33-122-25-43-79-57-122-33l-359 207-359-207c-42-24-97-10-122 33-24 43-10 97 33 122l402 232c13 8 28 12 42 12l4 0c16 0 32-4 46-12z"/></symbol>
  <symbol id="icon-ok" viewBox="0 0 928 1000"><path transform="translate(0 850) scale(1 -1)" d="M352-10l-334 333 158 160 176-174 400 401 159-160z"/></symbol>
  <symbol id="icon-pencil" viewBox="0 0 780 1000"><path transform="translate(0 850) scale(1 -1)" d="M718 680q32-32 47-64t15-48l0-16-252-252-290-288-238-52 50 240 290 288 252 252q54 12 126-60z m-494-640l24 24q-2 44-52 94-22 22-45 35t-35 13l-14 2-22-24-18-80q28-16 46-34 24-24 36-48z"/></symbol>
  <symbol id="icon-question-mark" viewBox="0 0 1000 1000"><path transform="translate(0 850) scale(1 -1)" d="M500 850c276 0 500-224 500-500s-224-500-500-500-500 224-500 500 224 500 500 500z m-20-682c-44 0-79-34-79-76s35-76 79-76 78 34 78 76-35 76-78 76z m20 511c-20 0-39-2-56-5-17-3-33-8-48-14-15-6-29-13-42-21-13-8-25-17-36-26l36-56c7-11 16-17 29-17 6 0 12 2 17 5 6 3 12 7 20 11 8 4 17 8 27 11 11 3 24 5 40 5 21 0 37-5 49-16 11-11 17-25 17-43 0-14-3-27-9-38-6-11-14-21-24-29-9-9-20-17-31-25-11-7-21-15-31-24-9-8-17-17-23-26-7-10-10-22-10-35 0-2 1-9 1-10l10-72h95l12 62c2 9 7 18 15 25 7 8 16 15 26 23s22 16 33 25c12 8 22 19 32 31 10 12 18 26 24 43 6 16 9 36 9 59 0 23-4 45-12 64-9 20-21 36-37 50-16 14-35 25-57 32-23 7-48 11-76 11z"/></symbol>
  <symbol id="icon-quote" viewBox="0 0 762 1000"><path transform="translate(0 850) scale(1 -1)" d="M146 680q146 0 184-146 38-140-40-302-80-168-224-204-32-8-66-8l0 70q112 0 182 108 54 86 26 146-16 36-62 36-60 0-103 44t-43 106 43 106 103 44z m420 0q146 0 184-146 38-140-40-302-80-168-224-204-32-8-66-8l0 70q112 0 182 108 54 86 26 146-16 36-62 36-60 0-103 44t-43 106 43 106 103 44z"/></symbol>
  <symbol id="icon-recycle" viewBox="0 0 1000 1000"><path transform="translate(0 850) scale(1 -1)" d="M467 198l-9-206-1-12-234 16q-20 2-38 18t-26 36q-6 15-8 31t2 36 7 31 12 36 11 29q43-6 284-15z m-216 327l100-212-82 52q-35-41-62-81t-41-70-22-53-10-35l-2-11-106 199q-10 14-10 31t3 26l4 10q20 35 64 105l-78 48z m687-289l-105-200q-7-16-21-26t-24-12l-10-2q-40-4-122-7l4-91-128 205 118 202 4-97q94-9 157-2t95 18z m-439 516q-26-35-147-243l-177 104-11 7 126 199q11 17 33 25t45 5q13-1 27-6t23-12 23-18 21-20 20-22 17-19z m366-171l118-203q10-21 7-42t-15-42q-7-11-18-20t-22-16-27-12-26-9-29-8-25-7q-19 40-148 244l174 108z m-80 126l79 46-122-208-234 11 84 48q-19 50-42 93t-42 69-36 44-26 26l-10 7 226 0q18 1 33-6t22-16l6-8q21-34 62-106z"/></symbol>
  <symbol id="icon-resize-full" viewBox="0 0 792 1000"><path transform="translate(0 850) scale(1 -1)" d="M476 746l316 0 0-316-100 124-146-152-100 100 152 146z m-230-444l100-100-152-146 122-100-316 0 0 316 100-122z"/></symbol>
  <symbol id="icon-shield" viewBox="0 0 714 1000"><path transform="translate(0 850) scale(1 -1)" d="M607 314v357h-250v-634q67 35 119 76 131 103 131 201z m107 429v-429q0-48-18-95t-47-84-66-71-70-57-68-43-50-28-23-11q-7-4-15-4t-14 4q-9 4-24 11t-50 28-67 43-71 57-66 71-46 84-19 95v429q0 14 11 25t25 11h643q14 0 25-11t10-25z"/></symbol>
  <symbol id="icon-sliders" viewBox="0 0 857 1000"><path transform="translate(0 850) scale(1 -1)" d="M196 64v-71h-196v71h196z m197 72q14 0 25-11t11-25v-143q0-14-11-25t-25-11h-143q-14 0-25 11t-11 25v143q0 15 11 25t25 11h143z m89 214v-71h-482v71h482z m-357 286v-72h-125v72h125z m732-572v-71h-411v71h411z m-536 643q15 0 26-10t10-26v-142q0-15-10-25t-26-11h-142q-15 0-25 11t-11 25v142q0 15 11 26t25 10h142z m358-286q14 0 25-10t10-25v-143q0-15-10-25t-25-11h-143q-15 0-25 11t-11 25v143q0 14 11 25t25 10h143z m178-71v-71h-125v71h125z m0 286v-72h-482v72h482z"/></symbol>
  <symbol id="icon-smiley-bad" viewBox="0 0 1000 1000"><path transform="translate(0 850) scale(1 -1)" d="M500 850c276 0 500-224 500-500 0-276-224-500-500-500-276 0-500 224-500 500 0 276 224 500 500 500z m0-72c-236 0-428-192-428-428 0-236 192-428 428-428 236 0 428 192 428 428 0 236-192 428-428 428z m1-527c119 0 223-67 274-166-78 52-172 82-273 82-102 0-196-31-275-84l-2-1c52 101 156 169 276 169z m-164 356c71 0 129-57 129-128 0-71-58-129-129-129-71 0-128 58-128 129 0 71 57 128 128 128z m326 0c71 0 128-57 128-128 0-71-57-129-128-129-71 0-129 58-129 129 0 71 58 128 129 128z"/></symbol>
  <symbol id="icon-smiley-good" viewBox="0 0 1000 1000"><path transform="translate(0 850) scale(1 -1)" d="M500 850c276 0 500-224 500-500 0-276-224-500-500-500-276 0-500 224-500 500 0 276 224 500 500 500z m0-72c-236 0-428-192-428-428 0-236 192-428 428-428 236 0 428 192 428 428 0 236-192 428-428 428z m342-521c-63-124-192-208-341-208-149 0-277 84-341 207 97-65 214-102 340-102 126 0 244 38 341 103l1 0z m-505 350c71 0 129-57 129-128 0-71-58-129-129-129-71 0-128 58-128 129 0 71 57 128 128 128z m326 0c71 0 128-57 128-128 0-71-57-129-128-129-71 0-129 58-129 129 0 71 58 128 129 128z"/></symbol>
  <symbol id="icon-smiley-neutral" viewBox="0 0 1000 1000"><path transform="translate(0 850) scale(1 -1)" d="M500 850c276 0 500-224 500-500 0-276-224-500-500-500-276 0-500 224-500 500 0 276 224 500 500 500z m0-72c-236 0-428-192-428-428 0-236 192-428 428-428 236 0 428 192 428 428 0 236-192 428-428 428z m0-586c99 0 194-15 284-43l0 0c-90-27-185-42-284-42-98 0-194 15-283 42l0 0c89 28 185 43 283 43z m-163 415c71 0 129-57 129-128 0-71-58-129-129-129-71 0-128 58-128 129 0 71 57 128 128 128z m326 0c71 0 128-57 128-128 0-71-57-129-128-129-71 0-129 58-129 129 0 71 58 128 129 128z"/></symbol>
  <symbol id="icon-smiley-very-bad" viewBox="0 0 1000 1000"><path transform="translate(0 850) scale(1 -1)" d="M500 850c276 0 500-224 500-500 0-276-224-500-500-500-276 0-500 224-500 500 0 276 224 500 500 500z m1-599c-120 0-224-68-276-169l0 0 2 1c79 53 173 84 275 84 101 0 195-30 273-82-51 99-155 166-274 166z m-164 356c-71 0-128-57-128-128 0-71 57-129 128-129 71 0 129 58 129 129 0 71-58 128-129 128z m326 0c-71 0-129-57-129-128 0-71 58-129 129-129 71 0 128 58 128 129 0 71-57 128-128 128z"/></symbol>
  <symbol id="icon-smiley-very-good" viewBox="0 0 1000 1000"><path transform="translate(0 850) scale(1 -1)" d="M500 850c276 0 500-224 500-500 0-276-224-500-500-500-276 0-500 224-500 500 0 276 224 500 500 500z m342-593l-1 0c-97-65-215-103-341-103-126 0-243 37-340 102 64-123 192-207 341-207 149 0 278 84 341 208l0 0z m-505 350c-71 0-128-57-128-128 0-71 57-129 128-129 71 0 129 58 129 129 0 71-58 128-129 128z m326 0c-71 0-129-57-129-128 0-71 58-129 129-129 71 0 128 58 128 129 0 71-57 128-128 128z"/></symbol>
  <symbol id="icon-star" viewBox="0 0 928 1000"><path transform="translate(0 850) scale(1 -1)" d="M929 489q0-12-15-27l-202-197 48-279q0-4 0-12 0-11-6-19t-17-9q-10 0-22 7l-251 132-250-132q-12-7-23-7-11 0-17 9t-6 19q0 4 1 12l48 279-203 197q-14 15-14 27 0 21 31 26l280 40 126 254q11 23 27 23t28-23l125-254 280-40q32-5 32-26z"/></symbol>
  <symbol id="icon-star-empty" viewBox="0 0 928 1000"><path transform="translate(0 850) scale(1 -1)" d="M635 290l170 166-235 34-106 213-105-213-236-34 171-166-41-235 211 111 211-111z m294 199q0-12-15-27l-202-197 48-279q0-4 0-12 0-28-23-28-10 0-22 7l-251 132-250-132q-12-7-23-7-11 0-17 9t-6 19q0 4 1 12l48 279-203 197q-14 15-14 27 0 21 31 26l280 40 126 254q11 23 27 23t28-23l125-254 280-40q32-5 32-26z"/></symbol>
  <symbol id="icon-stats" viewBox="0 0 1142 1000"><path transform="translate(0 850) scale(1 -1)" d="M357 350v-286h-143v286h143z m214 286v-572h-142v572h142z m572-643v-72h-1143v858h71v-786h1072z m-357 500v-429h-143v429h143z m214 214v-643h-143v643h143z"/></symbol>
  <symbol id="icon-tag" viewBox="0 0 857 1000"><path transform="translate(0 850) scale(1 -1)" d="M250 600q0 30-21 51t-50 20-51-20-21-51 21-50 51-21 50 21 21 50z m595-321q0-30-20-51l-274-274q-22-21-51-21-30 0-50 21l-399 399q-21 21-36 57t-15 65v232q0 29 21 50t50 22h233q29 0 65-15t57-36l399-399q20-21 20-50z"/></symbol>
  <symbol id="icon-thermometer" viewBox="0 0 571 1000"><path transform="translate(0 850) scale(1 -1)" d="M357 100q0-45-31-76t-76-31-76 31-31 76q0 34 19 61t52 40v363h72v-363q32-12 52-40t19-61z m72 0q0 43-19 80t-53 63v428q0 45-31 76t-76 32-76-32-31-76v-428q-34-25-53-63t-19-80q0-74 53-126t126-53 126 53 53 126z m71 0q0-103-73-177t-177-73-177 73-73 177q0 102 71 175v396q0 75 53 127t126 52 126-52 53-127v-396q71-73 71-175z m71 321v-71h-107v71h107z m0 143v-71h-107v71h107z m0 143v-71h-107v71h107z"/></symbol>
  <symbol id="icon-trash" viewBox="0 0 814 1000"><path transform="translate(0 850) scale(1 -1)" d="M769 739c24 0 45-20 45-45s-21-45-45-45l-6 0-135-688-438 0-134 688-11 0c-25 0-45 20-45 45s20 45 45 45l724 0z m-396-107l-19 17-118 0-18-17 77-78z m-194-258l25-129 60 60-78 77z m39 40l77-77 78 77-78 76z m186-32l-76-77 76-77 77 77z m32 32l77-77 77 77-77 76z m-32 31l77 78-77 76-76-76z m-218 154l-43-42 17-85 26-27 78 78z m109-326l-77-78 77-76 78 76z m109-109l-76-77 57-58 38 0 58 58z m109-45l77 76-77 78-77-78z m100 118l25 128-17 17-76-77z m48 247l13 64-53 51-76-76 76-78z m-71 148l-19 17-117 0-18-17 77-78z m-457-23l40 40-48 0z m96-487l17-93 75 0z m364 12l-107-105 85 0z m91 468l10 47-59 0z"/></symbol>
  <symbol id="icon-truck" viewBox="0 0 1000 1000"><path transform="translate(0 850) scale(1 -1)" d="M357 64q0 29-21 51t-50 21-50-21-22-51 22-50 50-21 50 21 21 50z m-214 286h214v143h-88q-7 0-12-5l-109-109q-5-5-5-12v-17z m714-286q0 29-21 51t-50 21-50-21-22-51 22-50 50-21 50 21 21 50z m143 607v-571q0-8-2-15t-8-10-9-6-13-4-13-1-14 0-12 0q0-59-42-101t-101-42-101 42-42 101h-214q0-59-42-101t-101-42-101 42-42 101h-36q-1 0-12 0t-15 0-12 1-13 4-9 6-8 10-2 15q0 15 10 25t25 11v178q0 5 0 20t0 21 2 19 3 21 8 17 13 17l110 110q11 11 28 18t33 7h89v107q0 15 11 26t25 10h571q15 0 25-10t11-26z"/></symbol>
  <symbol id="icon-umbrella" viewBox="0 0 928 1000"><path transform="translate(0 850) scale(1 -1)" d="M465 797q184 0 315-131t131-315l-112 0q0 16-12 29t-30 13-29-13-13-29l-111 0q0 16-13 29t-29 13-29-13-12-29l0-279q0-69-49-119t-119-50-118 50-49 119l112 0q0-24 16-40t39-16q24 0 40 16t16 40l0 279q0 16-12 29t-30 13-29-13-13-29l-111 0q0 16-13 29t-29 13-29-13-13-29l-112 0q0 184 131 315t316 131z"/></symbol>
  <symbol id="icon-up" viewBox="0 0 1702 1000"><path transform="translate(0 850) scale(1 -1)" d="M1656-99c-64-65-153-71-232 0l-573 551-574-551c-78-71-167-65-230 0-65 66-60 176 0 238 59 61 688 662 688 662 32 33 74 49 116 49s84-16 116-49c0 0 629-601 689-662 60-62 64-172 0-238z"/></symbol>
  <symbol id="icon-user" viewBox="0 0 940 1000"><path transform="translate(0 850) scale(1 -1)" d="M736 128q204-72 204-122l0-106-940 0 0 106q0 50 204 122 94 34 128 69t34 95q0 22-22 49t-32 73q-2 12-9 18t-14 8-14 17-9 43q0 16 5 26t9 12l4 4q-8 50-12 88-4 54 41 112t157 58 158-58 40-112l-12-88q18-8 18-42-2-28-9-43t-14-17-14-8-9-18q-8-48-31-74t-23-48q0-60 35-95t127-69z"/></symbol>
  <symbol id="icon-users" viewBox="0 0 1000 1000"><path transform="translate(0 850) scale(1 -1)" d="M1000-90l-224 0 0 150q0 54-30 81t-154 89q40 30 40 84 0 16-13 33t-19 51q-2 8-14 16t-14 42q0 24 12 30-6 34-8 60-4 38 23 78t95 40 96-40 24-78l-8-60q12-6 12-30-2-34-14-42t-14-16q-6-34-19-51t-13-33q0-42 21-66t77-48q112-46 130-80 6-8 9-61t5-101l0-48z m-488 262q182-78 182-124l0-138-694 0 0 184q0 44 84 78 76 32 104 64t28 88q0 20-19 44t-25 68q-2 10-18 22t-20 56q0 14 3 23t7 13l4 2q-6 46-10 82-4 50 33 103t127 53 127-53 33-103l-10-82q14-8 14-38-4-44-20-56t-18-22q-6-44-25-68t-19-44q0-56 28-88t104-64z"/></symbol>
  <symbol id="icon-website" viewBox="0 0 1000 1000"><path transform="translate(0 850) scale(1 -1)" d="M214 189v-35q0-8-5-13t-13-5h-35q-7 0-13 5t-5 13v35q0 8 5 13t13 5h35q8 0 13-5t5-13z m0 143v-36q0-7-5-12t-13-5h-35q-7 0-13 5t-5 12v36q0 7 5 13t13 5h35q8 0 13-5t5-13z m0 143v-36q0-7-5-12t-13-6h-35q-7 0-13 6t-5 12v36q0 7 5 13t13 5h35q8 0 13-5t5-13z m643-286v-35q0-8-5-13t-13-5h-535q-8 0-13 5t-5 13v35q0 8 5 13t13 5h535q8 0 13-5t5-13z m0 143v-36q0-7-5-12t-13-5h-535q-8 0-13 5t-5 12v36q0 7 5 13t13 5h535q8 0 13-5t5-13z m0 143v-36q0-7-5-12t-13-6h-535q-8 0-13 6t-5 12v36q0 7 5 13t13 5h535q8 0 13-5t5-13z m72-393v464q0 8-6 13t-12 5h-822q-7 0-12-5t-6-13v-464q0-7 6-12t12-6h822q7 0 12 6t6 12z m71 607v-607q0-37-26-63t-63-26h-822q-36 0-63 26t-26 63v607q0 37 26 63t63 27h822q37 0 63-27t26-63z"/></symbol>
  <symbol id="icon-wrench" viewBox="0 0 928 1000"><path transform="translate(0 850) scale(1 -1)" d="M214 29q0 14-10 25t-25 10-25-10-11-25 11-25 25-11 25 11 10 25z m360 234l-381-381q-21-20-50-20-29 0-51 20l-59 61q-21 20-21 50 0 29 21 51l380 380q22-55 64-97t97-64z m354 243q0-22-13-59-27-75-92-122t-144-46q-104 0-177 73t-73 177 73 176 177 74q32 0 67-10t60-26q9-6 9-15t-9-16l-163-94v-125l108-60q2 2 44 27t75 45 40 20q8 0 13-5t5-14z"/></symbol>

  <!-- BEGIN CUSTOM ICONS, preserved by rake icons:build -->

  <!-- Tick chevron used by the Time Machine timeline's
       prev/next nav arrows. Two-line stroke, currentColor
       so the host theme drives the colour. -->
  <symbol id="chevron-down" viewBox="0 0 24 24">
    <path fill="none" stroke="currentColor" stroke-width="1.8" stroke-linecap="round" stroke-linejoin="round" d="M6 9 L12 15 L18 9"/>
  </symbol>

  <!-- Verification-chip "checking…" spinner. The chip's
       CSS rotates the SVG via @keyframes spin; the
       stroke-dasharray creates the moving arc. -->
  <symbol id="spinner" viewBox="0 0 24 24">
    <circle cx="12" cy="12" r="9" fill="none" stroke="currentColor" stroke-width="2.5" stroke-linecap="round" stroke-dasharray="14 42"/>
  </symbol>

  <!-- Download glyph for the snapshot + event-data
       download buttons. Two-line stroke, currentColor
       so it picks up the surrounding link/button colour. -->
  <symbol id="icon-download" viewBox="0 0 24 24">
    <path fill="none" stroke="currentColor" stroke-width="1.8" stroke-linecap="round" stroke-linejoin="round" d="M12 4 L12 15 M7 10 L12 15 L17 10 M5 19 L19 19"/>
  </symbol>

  <!-- END CUSTOM ICONS -->
</svg>
