<?xml version="1.0" encoding="UTF-8" standalone="no"?>
<!-- Created with Inkscape (http://www.inkscape.org/) -->

<svg
   width="71.809761mm"
   height="11.189679mm"
   viewBox="0 0 71.809761 11.189679"
   version="1.1"
   id="svg1"
   xmlns="http://www.w3.org/2000/svg"
   xmlns:svg="http://www.w3.org/2000/svg">
  <defs
     id="defs1" />
  <g
     id="layer1"
     transform="translate(-21.775267,-23.695137)">
    <path
       d="m 34.20856,32.933056 1.207727,-7.336189 h 1.23767 l 0.868365,3.952559 0.339361,1.547087 c 0.01331,-0.212932 0.02329,-0.425864 0.02994,-0.638797 0.01331,-0.212933 0.02994,-0.425865 0.04991,-0.638798 0.01996,-0.212932 0.04325,-0.425864 0.06987,-0.638797 0.02662,-0.219587 0.05989,-0.435846 0.09981,-0.648779 l 0.479098,-2.934475 h 1.197746 l -1.207727,7.336189 h -1.23767 l -1.207726,-5.499647 -0.03993,0.638798 c -0.0067,0.212932 -0.01997,0.425864 -0.03992,0.638797 -0.01996,0.212933 -0.04325,0.429192 -0.06987,0.648779 -0.02662,0.212932 -0.05989,0.425864 -0.09981,0.638797 l -0.479098,2.934476 z m 8.294389,0.07985 c -0.219587,0 -0.435846,-0.01996 -0.648778,-0.05989 -0.206279,-0.03993 -0.399249,-0.109795 -0.57891,-0.209605 -0.173008,-0.09981 -0.322726,-0.229568 -0.449155,-0.389267 -0.126429,-0.159699 -0.219587,-0.336034 -0.279474,-0.529004 -0.05989,-0.199625 -0.08983,-0.405903 -0.08983,-0.618835 0,-0.219587 0.01664,-0.435846 0.04991,-0.648779 l 0.509042,-3.044269 c 0.02662,-0.179662 0.0732,-0.359324 0.139737,-0.538985 0.06654,-0.186316 0.156371,-0.359324 0.269493,-0.519023 0.119774,-0.166353 0.259511,-0.309417 0.41921,-0.429192 0.1597,-0.126429 0.329381,-0.226241 0.509042,-0.299437 0.179662,-0.07985 0.362651,-0.133082 0.548967,-0.159699 0.19297,-0.03327 0.382613,-0.04991 0.568929,-0.04991 0.219587,0 0.432519,0.01996 0.638797,0.05989 0.212933,0.03993 0.405903,0.109795 0.57891,0.209606 0.179662,0.09981 0.332707,0.229568 0.459136,0.389267 0.126429,0.159699 0.219587,0.339361 0.279474,0.538985 0.05989,0.19297 0.08983,0.399248 0.08983,0.618835 0,0.212933 -0.01664,0.425865 -0.04991,0.638798 l -0.509042,3.044269 c -0.02661,0.179661 -0.07319,0.36265 -0.139737,0.548966 -0.06654,0.179662 -0.159698,0.35267 -0.279474,0.519023 -0.11312,0.159699 -0.24953,0.302763 -0.409229,0.429192 -0.1597,0.119775 -0.329381,0.219587 -0.509042,0.299436 -0.179662,0.0732 -0.365978,0.123102 -0.558948,0.149719 -0.186316,0.03327 -0.372632,0.04991 -0.558948,0.04991 z m 0,-1.008103 c 0.153045,0 0.306091,-0.02329 0.459136,-0.06987 0.159699,-0.05323 0.299436,-0.133083 0.419211,-0.239549 0.119775,-0.113121 0.212933,-0.242876 0.279474,-0.389267 0.06654,-0.153045 0.109792,-0.306091 0.129755,-0.459136 l 0.509042,-3.034288 c 0.02661,-0.159699 0.03327,-0.316072 0.01996,-0.469117 -0.0067,-0.159699 -0.04326,-0.302763 -0.109794,-0.429192 -0.06654,-0.126429 -0.169679,-0.222914 -0.309417,-0.289455 -0.133083,-0.06654 -0.276147,-0.09981 -0.429192,-0.09981 -0.153045,0 -0.306091,0.02662 -0.459136,0.07985 -0.153045,0.04658 -0.292782,0.12643 -0.419211,0.239549 -0.119775,0.106466 -0.212933,0.236222 -0.279474,0.389267 -0.05989,0.146391 -0.103138,0.29611 -0.129755,0.449155 l -0.509042,3.034287 c -0.02662,0.159699 -0.0366,0.319399 -0.02994,0.479098 0.01331,0.153045 0.05323,0.292782 0.119775,0.419211 0.06654,0.126429 0.166352,0.222914 0.299436,0.289455 0.139737,0.06654 0.286128,0.09981 0.439173,0.09981 z m 7.056719,0.928253 -1.048027,-2.834664 h -0.65876 l -0.469116,2.834664 h -1.197746 l 1.207727,-7.336189 h 2.235791 c 0.206278,0 0.409229,0.02329 0.608854,0.06987 0.199624,0.03993 0.379286,0.113122 0.538985,0.219587 0.166353,0.106466 0.302763,0.242876 0.409229,0.409229 0.113121,0.159699 0.19297,0.336034 0.239549,0.529005 0.04658,0.19297 0.06987,0.395921 0.06987,0.608853 0,0.206279 -0.01664,0.412557 -0.04991,0.618835 -0.03993,0.219587 -0.09981,0.439173 -0.179662,0.65876 -0.07985,0.219587 -0.196297,0.422538 -0.349342,0.608854 -0.153045,0.186316 -0.332707,0.342688 -0.538986,0.469117 -0.206278,0.126429 -0.41921,0.212932 -0.638797,0.259511 l 1.058008,2.88457 z M 49.16042,29.09029 c 0.146391,0 0.289455,-0.03327 0.429192,-0.09981 0.146391,-0.06654 0.266165,-0.159698 0.359323,-0.279474 0.09981,-0.119775 0.173008,-0.24953 0.219587,-0.389267 0.04658,-0.146391 0.07985,-0.289455 0.09981,-0.429192 0.01996,-0.09981 0.03327,-0.196297 0.03992,-0.289455 0.0067,-0.09981 0.0033,-0.196297 -0.01,-0.289455 -0.0067,-0.09316 -0.0233,-0.182989 -0.04991,-0.269493 -0.02662,-0.0865 -0.06987,-0.163027 -0.129756,-0.229568 -0.05323,-0.07319 -0.123102,-0.126428 -0.209605,-0.159699 -0.0865,-0.03327 -0.176335,-0.04991 -0.269493,-0.04991 h -1.207726 l -0.419211,2.485321 z m 4.84089,3.842766 h -1.826561 l 1.207726,-7.336189 h 1.547088 c 0.179661,0 0.359323,0.01331 0.538985,0.03993 0.179662,0.01996 0.349343,0.06654 0.509042,0.139736 0.159699,0.0732 0.302763,0.163027 0.429192,0.269493 0.133083,0.09981 0.24953,0.219587 0.349342,0.359324 0.106466,0.133083 0.19297,0.279474 0.259512,0.439173 0.07319,0.153045 0.129755,0.316072 0.16968,0.489079 0.03993,0.166353 0.06987,0.339361 0.08983,0.519023 0.01996,0.173008 0.02661,0.349343 0.01996,0.529004 0,0.179662 -0.01,0.362651 -0.02994,0.548967 -0.01331,0.179661 -0.0366,0.36265 -0.06987,0.548966 -0.02661,0.159699 -0.05988,0.322726 -0.09981,0.48908 -0.03327,0.166353 -0.07653,0.32938 -0.129755,0.489079 -0.04658,0.159699 -0.106467,0.319399 -0.179662,0.479098 -0.06654,0.159699 -0.14639,0.316072 -0.239549,0.469117 -0.09316,0.146391 -0.196297,0.289455 -0.309418,0.429192 -0.106466,0.139737 -0.22624,0.269492 -0.359323,0.389267 -0.133083,0.119775 -0.276147,0.226241 -0.429192,0.319399 -0.146391,0.09316 -0.299437,0.173008 -0.459136,0.239549 -0.159699,0.05989 -0.326053,0.09981 -0.499061,0.119774 -0.166353,0.01996 -0.32938,0.02994 -0.489079,0.02994 z m -0.469117,-1.008102 h 0.459136 c 0.113121,0 0.229568,-0.01 0.349342,-0.02994 0.119775,-0.02662 0.232895,-0.06655 0.339361,-0.119774 0.106467,-0.05989 0.209606,-0.129755 0.309418,-0.209606 0.09981,-0.0865 0.186316,-0.176335 0.259511,-0.269493 0.0732,-0.09981 0.139738,-0.199624 0.199625,-0.299436 0.06654,-0.106466 0.126427,-0.212932 0.179661,-0.319399 0.05323,-0.11312 0.09981,-0.22624 0.139737,-0.339361 0.04658,-0.11312 0.08318,-0.22624 0.109794,-0.339361 0.03327,-0.11312 0.05989,-0.22624 0.07985,-0.339361 0.02661,-0.119775 0.0499,-0.236222 0.06987,-0.349342 0.01996,-0.113121 0.0366,-0.226241 0.04991,-0.339361 0.01331,-0.119775 0.02329,-0.236222 0.02994,-0.349343 0.0067,-0.119775 0.01,-0.236222 0.01,-0.349342 0,-0.113121 -0.0067,-0.226241 -0.01996,-0.339361 -0.01331,-0.113121 -0.03327,-0.222914 -0.05989,-0.32938 -0.01996,-0.106466 -0.05323,-0.209605 -0.09981,-0.309418 -0.03993,-0.09981 -0.09316,-0.19297 -0.159699,-0.279474 -0.05989,-0.0865 -0.133082,-0.163026 -0.219587,-0.229567 -0.0865,-0.06654 -0.182989,-0.113119 -0.289455,-0.139737 -0.106467,-0.02662 -0.21626,-0.03993 -0.32938,-0.03993 h -0.519023 z m 7.305925,1.008102 h -2.894551 v -1.008102 h 0.90829 l 0.888328,-5.319985 H 58.96165 l -0.01,-1.008102 h 2.894551 v 1.008102 h -0.90829 l -0.888328,5.319985 h 0.778535 z m 3.552988,0.07985 c -0.219028,0.01564 -0.435846,-0.01996 -0.648778,-0.05989 -0.212932,-0.03327 -0.40923,-0.09981 -0.588892,-0.199624 -0.179661,-0.09981 -0.336033,-0.229568 -0.469117,-0.389267 -0.126428,-0.159699 -0.222913,-0.336034 -0.289455,-0.529004 -0.06654,-0.199624 -0.09981,-0.405902 -0.09981,-0.618835 0,-0.219587 0.01664,-0.439173 0.04991,-0.65876 l 0.509042,-3.044269 c 0.02661,-0.179662 0.07319,-0.359324 0.139737,-0.538985 0.06654,-0.186316 0.156371,-0.359324 0.269493,-0.519023 0.119774,-0.166353 0.259511,-0.309417 0.41921,-0.429192 0.1597,-0.126429 0.32938,-0.226241 0.509042,-0.299437 0.179662,-0.07985 0.365978,-0.133082 0.558948,-0.159699 0.19297,-0.03327 0.379286,-0.04991 0.558948,-0.04991 0.19297,0 0.379286,0.01331 0.558947,0.03993 0.186316,0.01996 0.359324,0.06321 0.519023,0.129756 0.166354,0.06654 0.319399,0.156371 0.459136,0.269492 0.139737,0.106467 0.24953,0.236222 0.32938,0.389267 0.0865,0.146391 0.143064,0.312745 0.16968,0.499061 0.02661,0.179662 0.02661,0.362651 0,0.548966 l -0.01996,0.08983 h -1.187764 l 0.01,-0.03992 c 0.01996,-0.133083 0.01331,-0.262839 -0.01996,-0.389268 -0.03327,-0.126429 -0.09649,-0.229568 -0.189643,-0.309417 -0.0865,-0.0865 -0.19297,-0.143064 -0.319399,-0.169681 -0.126428,-0.03327 -0.256184,-0.04991 -0.389267,-0.04991 -0.146391,0 -0.296109,0.02662 -0.449155,0.07985 -0.14639,0.05323 -0.276146,0.13641 -0.389267,0.24953 -0.106466,0.113121 -0.189642,0.242876 -0.24953,0.389267 -0.05989,0.146391 -0.09981,0.292783 -0.119774,0.439174 l -0.509042,3.034287 c -0.01331,0.113121 -0.02329,0.226241 -0.02994,0.339361 0,0.106467 0.01331,0.209606 0.03992,0.309418 0.02661,0.09981 0.06987,0.19297 0.129756,0.279474 0.05989,0.0865 0.129755,0.156372 0.209605,0.209605 0.0865,0.05323 0.182989,0.09316 0.289455,0.119775 0.106467,0.01996 0.212933,0.02994 0.319399,0.02994 0.146392,0 0.289456,-0.02329 0.429192,-0.06987 0.146392,-0.04658 0.276147,-0.119776 0.389267,-0.219587 0.119775,-0.09981 0.219587,-0.212932 0.299436,-0.339361 0.0865,-0.133083 0.149719,-0.269492 0.189643,-0.409229 l 1.097934,0.279473 c -0.06654,0.173008 -0.14639,0.339362 -0.23955,0.499061 -0.0865,0.159699 -0.192969,0.309417 -0.319398,0.449154 -0.119774,0.139737 -0.256184,0.262839 -0.40923,0.369305 -0.153045,0.106466 -0.312744,0.196297 -0.479098,0.269493 -0.166353,0.06654 -0.339361,0.113119 -0.519023,0.139737 -0.173007,0.02662 -0.346454,0.0276 -0.519023,0.03993 z m 6.496635,-0.07985 0.209605,-7.336189 h 1.06799 l -0.359324,4.980623 1.39737,-4.980623 h 0.998121 l -0.239549,4.980623 1.277594,-4.980623 h 1.06799 l -2.205847,7.336189 h -0.98814 l 0.24953,-5.240135 -1.4872,5.240135 z m 5.489671,0 1.207726,-7.336189 h 4.29192 l -0.159699,1.008102 h -3.094175 l -0.339361,2.006223 h 2.435415 l -0.159699,1.008102 h -2.435415 l -0.389268,2.30566 h 3.094175 l -0.159699,1.008102 z m 5.599464,0 3.014325,-7.336189 h 1.377407 l 0.598873,7.336189 h -1.23767 l -0.08983,-1.587012 h -1.81658 l -0.608854,1.587012 z M 85.590074,30.337941 85.4703,28.042263 c -0.0067,-0.146391 -0.01332,-0.292782 -0.01996,-0.439173 -0.0067,-0.153045 -0.01332,-0.302764 -0.01996,-0.449155 -0.05989,0.146391 -0.119774,0.29611 -0.179662,0.449155 -0.05989,0.146391 -0.113119,0.292782 -0.159699,0.439173 l -0.878347,2.295678 z m 6.058596,2.595115 -1.048027,-2.834664 h -0.65876 l -0.469117,2.834664 h -1.197745 l 1.207727,-7.336189 h 2.235791 c 0.206278,0 0.409229,0.02329 0.608853,0.06987 0.199625,0.03993 0.379287,0.113122 0.538986,0.219587 0.166354,0.106466 0.302763,0.242876 0.409229,0.409229 0.113121,0.159699 0.192971,0.336034 0.239549,0.529005 0.04658,0.19297 0.06987,0.395921 0.06987,0.608853 0,0.206279 -0.01664,0.412557 -0.04991,0.618835 -0.03993,0.219587 -0.09981,0.439173 -0.179662,0.65876 -0.07985,0.219587 -0.196297,0.422538 -0.349342,0.608854 -0.153045,0.186316 -0.332707,0.342688 -0.538986,0.469117 -0.206278,0.126429 -0.41921,0.212932 -0.638797,0.259511 l 1.058008,2.88457 z M 91.249422,29.09029 c 0.146391,0 0.289455,-0.03327 0.429192,-0.09981 0.146391,-0.06654 0.266165,-0.159698 0.359323,-0.279474 0.09981,-0.119775 0.173008,-0.24953 0.219587,-0.389267 0.04658,-0.146391 0.07985,-0.289455 0.09981,-0.429192 0.01996,-0.09981 0.03327,-0.196297 0.03993,-0.289455 0.0067,-0.09981 0.0033,-0.196297 -0.01,-0.289455 -0.0067,-0.09316 -0.0233,-0.182989 -0.04991,-0.269493 -0.02661,-0.0865 -0.06987,-0.163027 -0.129756,-0.229568 -0.05323,-0.07319 -0.123102,-0.126428 -0.209606,-0.159699 -0.0865,-0.03327 -0.176334,-0.04991 -0.269492,-0.04991 h -1.207727 l -0.41921,2.485321 z"
       id="text1"
       style="font-style:italic;font-weight:bold;font-size:9.98121px;font-family:'Adwaita Mono';-inkscape-font-specification:'Adwaita Mono Bold Italic';letter-spacing:0px;stroke-width:1.99625;stroke-linejoin:bevel"
       aria-label="NORDIC WEAR" />
    <path
       style="opacity:1;fill:none;fill-opacity:1;stroke:#000000;stroke-width:1.30432;stroke-linejoin:miter;stroke-dasharray:none;stroke-opacity:1"
       d="M 23.365319,33.25992 27.621516,25.248255 30.7928,33.25992 27.371151,31.090095 Z"
       id="path1" />
  </g>
</svg>
