<?xml version="1.0" encoding="UTF-8" standalone="no"?>
<!-- Created with Inkscape (http://www.inkscape.org/) -->

<svg
   width="45.652512mm"
   height="8.5069704mm"
   viewBox="0 0 45.652512 8.5069704"
   version="1.1"
   id="svg1"
   xml:space="preserve"
   inkscape:version="1.4.3 (0d15f75042, 2025-12-25)"
   sodipodi:docname="volturra.svg"
   xmlns:inkscape="http://www.inkscape.org/namespaces/inkscape"
   xmlns:sodipodi="http://sodipodi.sourceforge.net/DTD/sodipodi-0.dtd"
   xmlns="http://www.w3.org/2000/svg"
   xmlns:svg="http://www.w3.org/2000/svg"><sodipodi:namedview
     id="namedview1"
     pagecolor="#ffffff"
     bordercolor="#000000"
     borderopacity="0.25"
     inkscape:showpageshadow="2"
     inkscape:pageopacity="0.0"
     inkscape:pagecheckerboard="0"
     inkscape:deskcolor="#d1d1d1"
     inkscape:document-units="mm"
     inkscape:zoom="4.5126199"
     inkscape:cx="69.361037"
     inkscape:cy="-6.9804239"
     inkscape:window-width="1896"
     inkscape:window-height="1030"
     inkscape:window-x="0"
     inkscape:window-y="0"
     inkscape:window-maximized="1"
     inkscape:current-layer="layer1" /><defs
     id="defs1" /><g
     inkscape:label="Layer 1"
     inkscape:groupmode="layer"
     id="layer1"
     transform="translate(-88.646272,-107.43169)"><path
       style="display:none;fill:#000000;fill-opacity:1;stroke-width:2"
       d="m 88.646497,107.43146 4.945154,8.41775 3.164899,-5.7144 0.813202,1.95608 0.549462,-4.5935 -3.736338,1.84619 1.84619,0.50551 -2.637415,3.51655 z"
       id="path1"
       sodipodi:nodetypes="ccccccccc" /><path
       id="text1"
       style="font-style:italic;font-weight:bold;font-size:8.07798px;font-family:Arial;-inkscape-font-specification:'Arial Bold Italic';letter-spacing:0px;stroke-width:6.10621"
       d="m 121.53867,107.43169 7.52264,8.41757 1.41509,-5.71438 1.13152,1.56735 c 0.0509,-0.0859 0.10523,-0.16787 0.16224,-0.2465 l -0.73859,-3.95842 -3.1709,1.8464 2.00114,0.5054 -1.56089,3.51658 z m 10.23149,4.02404 0.11848,0.6351 -0.28072,-0.3886 c -0.0326,0.055 -0.0637,0.11149 -0.0938,0.16949 -0.2761,0.5338 -0.41402,1.11012 -0.41402,1.72806 0,0.47332 0.0974,0.88732 0.29199,1.24231 0.19721,0.35236 0.482,0.62302 0.8554,0.81235 0.37603,0.18933 0.8182,0.28422 1.3257,0.28422 0.63898,0 1.207,-0.14234 1.70399,-0.42633 0.49698,-0.28662 0.88352,-0.69662 1.15962,-1.23042 0.27873,-0.53642 0.41815,-1.1292 0.41815,-1.7787 0,-0.70472 -0.22256,-1.26105 -0.66695,-1.66863 -0.44439,-0.41021 -1.05147,-0.61547 -1.82193,-0.61547 -0.63898,0 -1.20451,0.14234 -1.69623,0.42633 -0.35556,0.20345 -0.65546,0.47348 -0.89965,0.81029 z m 6.43766,-1.15342 -1.07717,5.55728 h 4.14187 l 0.17738,-0.89917 h -2.98173 l 0.90288,-4.65811 z m 3.86126,0 -0.17325,0.89917 h 1.7942 l -0.90701,4.65811 h 1.16375 l 0.90702,-4.65811 h 1.79885 l 0.17326,-0.89917 z m 5.33301,0 -0.58418,3.05253 c -0.021,0.0973 -0.0417,0.22764 -0.0628,0.39067 -0.0184,0.16041 -0.0278,0.29823 -0.0278,0.41393 0,0.56798 0.18965,1.00746 0.5683,1.31775 0.38129,0.30766 0.91883,0.46147 1.61303,0.46147 0.77046,0 1.37263,-0.17629 1.8065,-0.52865 0.43388,-0.35499 0.72298,-0.90183 0.8676,-1.64073 l 0.67485,-3.46697 h -1.16376 l -0.66281,3.42356 c -0.0894,0.46806 -0.24687,0.80216 -0.47301,1.00201 -0.22352,0.19985 -0.55233,0.29972 -0.98621,0.29972 -0.33658,0 -0.60129,-0.0739 -0.79325,-0.22117 -0.19196,-0.14989 -0.28775,-0.36012 -0.28775,-0.63097 0,-0.22351 0.024,-0.44974 0.0713,-0.67851 l 0.60319,-3.19464 z m 5.9123,0 -1.08079,5.55728 h 1.16376 l 0.4062,-2.10633 h 1.36477 l 0.9069,2.10633 h 1.28623 l -1.08079,-2.2996 c 0.48909,-0.0736 0.87561,-0.26139 1.1596,-0.56379 0.28662,-0.3024 0.4298,-0.67045 0.4298,-1.10432 0,-0.32344 -0.0776,-0.6051 -0.23269,-0.84439 -0.15515,-0.23929 -0.38236,-0.42306 -0.68212,-0.55191 -0.29714,-0.12885 -0.65497,-0.19327 -1.07307,-0.19327 z m 5.83375,0 -1.08078,5.55728 h 1.16375 l 0.4062,-2.10633 h 1.36478 l 0.90689,2.10633 h 1.28571 l -1.08079,-2.2996 c 0.48909,-0.0736 0.87613,-0.26139 1.16012,-0.56379 0.28662,-0.3024 0.4298,-0.67045 0.4298,-1.10432 0,-0.32344 -0.0775,-0.6051 -0.23269,-0.84439 -0.15514,-0.23929 -0.38287,-0.42306 -0.68264,-0.55191 -0.29713,-0.12885 -0.65445,-0.19327 -1.07255,-0.19327 z m 7.54941,0 -3.10443,5.55728 h 1.15962 l 0.76928,-1.42006 h 2.11821 l 0.21671,1.42006 h 1.15187 l -0.93873,-5.55728 z m -32.38697,0.83613 c 0.43651,0 0.7694,0.12733 0.99816,0.3824 0.2314,0.25507 0.34678,0.61414 0.34678,1.07694 0,0.44439 -0.0826,0.86088 -0.24824,1.25005 -0.16303,0.38917 -0.39455,0.68283 -0.69432,0.88005 -0.29976,0.19721 -0.66126,0.29559 -1.08462,0.29559 -0.42336,0 -0.75343,-0.12086 -0.99008,-0.36277 -0.23666,-0.24455 -0.35515,-0.6086 -0.35515,-1.09244 0,-0.43124 0.0817,-0.84575 0.24477,-1.24282 0.16304,-0.39706 0.39417,-0.6942 0.69394,-0.89141 0.29977,-0.19722 0.66277,-0.29559 1.08876,-0.29559 z m 32.90374,0.0196 c 1e-5,0.0605 0.0236,0.26829 0.0709,0.62322 l 0.26421,1.78284 h -1.55804 l 0.83605,-1.56993 c 0.20248,-0.38915 0.33165,-0.66783 0.38685,-0.83613 z m -12.91385,0.0476 h 1.43557 c 0.3024,0 0.53689,0.0644 0.70255,0.19327 0.16829,0.12884 0.25196,0.3151 0.25196,0.55965 0,0.28399 -0.0982,0.50374 -0.2954,0.65888 -0.19458,0.15251 -0.48293,0.22892 -0.86422,0.22892 h -1.54977 z m 5.83375,0 h 1.43557 c 0.3024,0 0.53637,0.0644 0.70203,0.19327 0.16829,0.12884 0.25248,0.3151 0.25248,0.55965 0,0.28399 -0.0987,0.50374 -0.29591,0.65888 -0.19459,0.15251 -0.48242,0.22892 -0.8637,0.22892 h -1.54978 z"
       transform="skewX(-17.023035)" /></g></svg>
